Coordinates
version=1
nRows=24
nColumns=22
inDegrees=yes

Units are S.I. units (second, meters, Newtons, ...)
If the header above contains a line with 'inDegrees', this indicates whether rotational values are in degrees (yes) or radians (no).

endheader
time	pelvis_tilt	pelvis_list	pelvis_rotation	pelvis_tx	pelvis_ty	pelvis_tz	hip_flexion_r	hip_adduction_r	hip_rotation_r	knee_angle_r	ankle_angle_r	subtalar_angle_r	hip_flexion_l	hip_adduction_l	hip_rotation_l	knee_angle_l	ankle_angle_l	subtalar_angle_l	lumbar_extension	lumbar_bending	lumbar_rotation
      3.61000000	      5.38772070	      1.88976447	    -37.92190721	      0.90810667	      0.88191892	      0.59054996	     -0.77363833	     -6.67196953	      3.37717722	    -55.49715763	      9.34719966	     -5.19776311	     18.46400966	      3.00306099	    -15.93769503	    -25.73946478	      5.36469178	     -3.45752155	     -4.18976576	     -6.56118464	      9.28766249
      3.62000000	      5.46763881	      2.01014819	    -38.20746765	      0.91464405	      0.88321318	      0.59335673	      0.59666320	     -7.19741181	      3.09265729	    -56.65129598	     10.37746298	     -6.87200985	     17.77517783	      3.30661154	    -16.13479620	    -25.38492951	      5.66743212	     -3.45986942	     -4.37712629	     -6.72636218	      9.18500555
      3.63000000	      5.51704889	      2.04414090	    -38.39906132	      0.92111054	      0.88462716	      0.59608814	      1.83756734	     -7.62152908	      2.68123706	    -57.43185363	     11.47518582	     -8.61904891	     17.07279304	      3.55277103	    -16.20653229	    -25.03441384	      5.94919315	     -3.51779107	     -4.60127427	     -6.79105041	      8.98042565
      3.64000000	      5.53405682	      1.98820979	    -38.49561707	      0.92749980	      0.88615967	      0.59873526	      2.93661161	     -7.93699188	      2.14050129	    -57.83771370	     12.60180356	    -10.29257859	     16.35286865	      3.73403711	    -16.15164031	    -24.68518636	      6.20264771	     -3.62660273	     -4.86793683	     -6.74938575	      8.68994677
      3.65000000	      5.51475648	      1.84407250	    -38.49512925	      0.93381744	      0.88778424	      0.60131092	      3.89082896	     -8.13692048	      1.47117377	    -57.88024776	     13.67562989	    -11.83182835	     15.61476637	      3.83569584	    -16.01131035	    -24.33799318	      6.48127782	     -3.75969786	     -5.16986320	     -6.60019558	      8.29346859
      3.66000000	      5.46219636	      1.63582508	    -38.42675786	      0.94004947	      0.88946510	      0.60384516	      4.71922257	     -8.25047655	      0.68364117	    -57.57821629	     14.68435175	    -13.20306777	     14.86456152	      3.86515691	    -15.83417216	    -23.98262085	      6.74814519	     -3.90552381	     -5.48438019	     -6.37256685	      7.88576695
      3.67000000	      5.39536656	      1.39386778	    -38.29426381	      0.94617347	      0.89116231	      0.60630234	      5.43789118	     -8.30502779	     -0.18695446	    -56.96890877	     15.59707338	    -14.31994399	     14.10166507	      3.86121774	    -15.61869953	    -23.60245643	      6.99873315	     -4.03989132	     -5.81663441	     -6.10247787	      7.40092705
      3.68000000	      5.31640592	      1.11432976	    -38.10433803	      0.95220705	      0.89286640	      0.60869482	      6.03539953	     -8.30948642	     -1.16036135	    -56.05614229	     16.40369448	    -15.19704978	     13.32676861	      3.81265063	    -15.38125227	    -23.21228271	      7.20124975	     -4.15966704	     -6.16433070	     -5.78888460	      6.90656986
      3.69000000	      5.20663009	      0.84964037	    -37.86176439	      0.95812337	      0.89445794	      0.61099367	      6.58671178	     -8.29163561	     -2.20865540	    -54.89476029	     17.06169354	    -15.59871899	     12.59382876	      3.75647034	    -15.08931234	    -22.80644246	      7.44070776	     -4.20943428	     -6.47672249	     -5.46589337	      6.33767789
      3.70000000	      5.14031836	      0.53575309	    -37.63728956	      0.96387737	      0.89609316	      0.61334150	      6.97585687	     -8.23126636	     -3.26949834	    -53.46264804	     17.70328686	    -16.28643543	     11.79349834	      3.64840893	    -14.91521148	    -22.39799156	      7.60173237	     -4.31826288	     -6.85910978	     -5.13714811	      5.86494662
      3.71000000	      5.01625157	      0.26780599	    -37.38157471	      0.96947540	      0.89750996	      0.61561760	      7.38122406	     -8.13688142	     -4.33995495	    -51.84019689	     18.20536293	    -16.48783075	     11.09839301	      3.53551361	    -14.68091408	    -22.00607024	      7.82167173	     -4.34893213	     -7.15590897	     -4.80754163	      5.31060069
      3.72000000	      4.93699788	     -0.02455079	    -37.12584653	      0.97496365	      0.89892281	      0.61792478	      7.63564297	     -8.03066585	     -5.44092299	    -49.99255573	     18.63380028	    -16.66195168	     10.35828921	      3.40626377	    -14.49537615	    -21.62370879	      8.00272664	     -4.39886938	     -7.50331513	     -4.49534856	      4.82320514
      3.73000000	      4.82416754	     -0.29816335	    -36.85765334	      0.98027228	      0.90016348	      0.62020560	      7.86563761	     -7.86967447	     -6.50869096	    -47.98760729	     18.98985381	    -16.65284858	      9.69651713	      3.25335725	    -14.30240872	    -21.28190039	      8.21961542	     -4.42728761	     -7.80695537	     -4.17690784	      4.30121296
      3.74000000	      4.74677143	     -0.58467445	    -36.59183574	      0.98546493	      0.90137105	      0.62254009	      7.97116820	     -7.69157892	     -7.58467964	    -45.82168696	     19.25042639	    -16.48392997	      9.01064519	      3.09513922	    -14.11147888	    -20.95806228	      8.42237625	     -4.46532452	     -8.13664840	     -3.88168604	      3.84873269
      3.75000000	      4.65759456	     -0.86824437	    -36.31354414	      0.99049936	      0.90246083	      0.62487814	      8.01620294	     -7.45123020	     -8.59658189	    -43.53661857	     19.44411444	    -16.10046547	      8.37263126	      2.91594456	    -13.90345208	    -20.67715019	      8.64781379	     -4.50125247	     -8.44758410	     -3.58336180	      3.38308227
      3.76000000	      4.56271187	     -1.15324355	    -36.02148481	      0.99537767	      0.90344708	      0.62722559	      7.99610936	     -7.14375313	     -9.51621316	    -41.16188126	     19.58254651	    -15.44544670	      7.77640958	      2.71505291	    -13.68321676	    -20.44350699	      8.88166694	     -4.54218726	     -8.74504921	     -3.28174554	      2.90927846
      3.77000000	      4.43507031	     -1.44019859	    -35.70983869	      1.00009762	      0.90429858	      0.62957254	      7.94129763	     -6.75267195	    -10.33505538	    -38.73173075	     19.63688660	    -14.67534215	      7.25625834	      2.47650496	    -13.41861216	    -20.27622118	      9.15732991	     -4.57954831	     -9.00222608	     -2.95966128	      2.46271853
      3.78000000	      4.29406905	     -1.72673560	    -35.38777038	      1.00466143	      0.90503575	      0.63193603	      7.85045083	     -6.28998259	    -11.00326844	    -36.29228796	     19.61935138	    -13.68784594	      6.79389727	      2.20926846	    -13.15521061	    -20.17216729	      9.44842814	     -4.62238133	     -9.23164394	     -2.63345076	      2.03132550
      3.79000000	      4.13925127	     -2.00356643	    -35.05175356	      1.00907217	      0.90564574	      0.63427775	      7.74656185	     -5.76651740	    -11.47702930	    -33.89758151	     19.54491429	    -12.60537282	      6.39264063	      1.93136818	    -12.85513519	    -20.11864146	      9.76160007	     -4.66477650	     -9.42915405	     -2.30663714	      1.63030292
      3.80000000	      3.96928625	     -2.26564943	    -34.70627264	      1.01334306	      0.90612090	      0.63661453	      7.64908099	     -5.19668103	    -11.73987855	    -31.59984770	     19.40570523	    -11.46415880	      6.05515367	      1.64300102	    -12.53747844	    -20.11754443	     10.10543411	     -4.70559479	     -9.58355220	     -1.98771780	      1.28096850
      3.81000000	      3.79581246	     -2.49724606	    -34.36545576	      1.01745179	      0.90645800	      0.63892895	      7.58814380	     -4.60625910	    -11.71959557	    -29.47627865	     19.23196337	    -10.23949771	      5.78900984	      1.36113716	    -12.25727362	    -20.17930370	     10.40172950	     -4.75508015	     -9.70151080	     -1.69418450	      0.95095301
      3.82000000	      3.63037295	     -2.69541195	    -34.00532214	      1.02144351	      0.90666666	      0.64118353	      7.56052625	     -4.02556167	    -11.43650794	    -27.56979767	     19.02827728	     -9.13045966	      5.57096120	      1.11170940	    -11.91821227	    -20.27906509	     10.75898665	     -4.78983156	     -9.78925503	     -1.43478354	      0.64532176
      3.83000000	      3.46182540	     -2.86485308	    -33.64834302	      1.02528909	      0.90675113	      0.64342921	      7.59090609	     -3.45207788	    -10.87967129	    -25.92907550	     18.80386711	     -8.08503426	      5.41109505	      0.86975190	    -11.60038745	    -20.42619765	     11.08996643	     -4.82199561	     -9.83837048	     -1.20777095	      0.39044309
      3.84000000	      3.30124833	     -2.99603529	    -33.28968996	      1.02904050	      0.90673645	      0.64564070	      7.67435842	     -2.91826246	    -10.09013038	    -24.57150207	     18.56034496	     -7.10942406	      5.28210574	      0.66393894	    -11.27106150	    -20.57960447	     11.39159307	     -4.84515823	     -9.84802582	     -1.02046707	      0.18660641
